<svg width="50" height="50" viewBox="0 0 50 50" fill="none" xmlns="http://www.w3.org/2000/svg">
<g clip-path="url(#clip0_722_56)">
<path d="M32.2251 23.8916H17.7886C18.1078 16.063 24.3965 9.77427 32.2251 9.45508V23.8916Z" fill="white" stroke="black" stroke-width="1.25" stroke-miterlimit="10"/>
<path d="M49.3618 9.44141C49.0405 17.2699 42.7516 23.5576 34.9253 23.877V9.44141H49.3618Z" fill="white" stroke="black" stroke-width="1.25" stroke-miterlimit="10"/>
<path d="M32.2251 40.5586H17.7886C18.1078 32.73 24.3965 26.4413 32.2251 26.1221V40.5586Z" fill="white" stroke="black" stroke-width="1.25" stroke-miterlimit="10"/>
<path d="M49.3618 26.1084C49.0405 33.9369 42.7516 40.2246 34.9253 40.5439V26.1084H49.3618Z" fill="white" stroke="black" stroke-width="1.25" stroke-miterlimit="10"/>
<path d="M15.0957 23.9121H0.617188C0.926507 16.0556 7.2392 9.74293 15.0957 9.43359V23.9121Z" fill="black" stroke="black" stroke-width="1.20826" stroke-miterlimit="10"/>
<path d="M15.0957 40.5791H0.617188C0.926507 32.7226 7.2392 26.4099 15.0957 26.1006V40.5791Z" fill="black" stroke="black" stroke-width="1.20826" stroke-miterlimit="10"/>
<path d="M32.2334 9.4209C31.922 17.2773 25.609 23.5889 17.7549 23.8984V9.4209H32.2334Z" fill="black" stroke="black" stroke-width="1.20826" stroke-miterlimit="10"/>
<path d="M32.2334 26.0879C31.922 33.9443 25.609 40.2559 17.7549 40.5654V26.0879H32.2334Z" fill="black" stroke="black" stroke-width="1.20826" stroke-miterlimit="10"/>
</g>
<defs>
<clipPath id="clip0_722_56">
<rect width="50" height="50" fill="white"/>
</clipPath>
</defs>
</svg>
